<?xml version="1.0" encoding="iso-8859-1"?>
<!-- Uploaded to: SVG Repo, www.svgrepo.com, Generator: SVG Repo Mixer Tools -->
<svg version="1.1" id="Layer_1" xmlns="http://www.w3.org/2000/svg" xmlns:xlink="http://www.w3.org/1999/xlink" 
	 viewBox="0 0 512 512" xml:space="preserve">
<rect x="15.834" y="79.84" style="fill:#D4E4AC;" width="480.336" height="24.018"/>
<rect x="7.829" y="39.811" style="fill:#E2804F;" width="496.338" height="40.03"/>
<rect x="31.845" y="103.858" style="fill:#F2BF7E;" width="448.312" height="304.205"/>
<polygon style="fill:#FFFFFF;" points="231.984,352.673 296.028,248.278 312.039,264.128 360.072,191.998 376.141,223.979 
	432.238,167.901 432.238,352.673 "/>
<polyline style="fill:#D4E4AC;" points="232.041,352.351 296.056,296.15 320.059,312.081 360.079,272.012 376.144,288.003 
	432.238,222.198 432.238,352.673 "/>
<path d="M512,87.668H0V31.983h512V87.668z M15.657,72.011h480.686V47.64H15.657V72.011z"/>
<path d="M495.91,112.599V96.942H15.761v15.657h7.307v289.133h-7.307v15.657h230.68v30.27h15.657v-30.27H495.91v-15.657h-8.35
	V112.599C487.559,112.599,495.91,112.599,495.91,112.599z M38.725,401.732V112.599h433.177v289.133H38.725z"/>
<polygon style="fill:#D4E4AC;" points="262.098,464.36 262.098,456.009 246.441,456.009 246.441,464.36 231.828,464.36 
	231.828,480.017 276.712,480.017 276.712,464.36 "/>
<rect x="255.836" y="152.259" width="63.672" height="15.657"/>
<rect x="255.836" y="177.31" style="fill:#FFFFFF;" width="31.314" height="15.657"/>
<rect x="255.836" y="201.318" width="15.657" height="15.657"/>
<rect x="64.82" y="168.96" style="fill:#FFFFFF;" width="15.657" height="15.657"/>
<rect x="96.134" y="168.96" width="96.03" height="15.657"/>
<rect x="64.82" y="201.318" style="fill:#FFFFFF;" width="15.657" height="15.657"/>
<rect x="96.134" y="201.318" width="96.03" height="15.657"/>
<rect x="64.82" y="232.632" style="fill:#FFFFFF;" width="15.657" height="15.657"/>
<rect x="96.134" y="232.632" width="96.03" height="15.657"/>
<rect x="64.82" y="266.034" style="fill:#FFFFFF;" width="15.657" height="15.657"/>
<rect x="96.134" y="266.034" width="96.03" height="15.657"/>
<rect x="64.82" y="297.348" style="fill:#FFFFFF;" width="15.657" height="15.657"/>
<rect x="96.134" y="297.348" width="96.03" height="15.657"/>
<rect x="64.82" y="329.705" style="fill:#FFFFFF;" width="15.657" height="15.657"/>
<rect x="96.134" y="329.705" width="96.03" height="15.657"/>
<path d="M439.545,345.367V148.955l-61.502,61.711l-16.984-34.376l-50.293,75.399l-16.315-16.266l-55.316,89.742V151.22h-15.657
	v209.804h224.417v-15.657H439.545z M423.888,345.367H251.631l44.959-39.39l24.419,16.162l39.011-39.026l16.212,16.387l47.657-54.668
	v43.125v57.41H423.888z M297.402,260.475l15.809,15.762l45.823-68.697l14.658,29.67l50.194-50.365v34.16l-48.382,55.5l-15.43-15.595
	l-41.095,41.111l-23.717-15.699l-29.99,26.276L297.402,260.475z"/>
</svg>